<?xml version="1.0" encoding="UTF-8"?>
<svg width="1054.7" height="618.84" version="1.1" viewBox="0 0 1054.7 618.84" xmlns="http://www.w3.org/2000/svg"><g transform="translate(1.178 -84.227)"><path fill="#0002" d="m240.94 574.61c-3.5852-0.73031-15.114-5.5843-21.305-8.9704-6.0171-3.2907-17.395-13.596-22.049-19.97-8.172-11.193-14.191-27.451-14.225-38.424-0.0131-4.0948-0.60971-5.799-2.0311-5.799-0.87462 0-1.6984 1.2075-2.9742 4.36-1.9944 4.9277-3.3184 6.3237-8.1195 8.5605-8.791 4.0957-20.347 3.8192-25.935-0.6205-2.6972-2.1428-5.8112-8.0054-7.4338-13.995-1.5552-5.7412-3.1848-8.0426-6.7452-9.5257-3.1976-1.332-3.6792-2.595-3.0796-8.0766 0.81804-7.4784 5.4709-12.704 13.99-15.712 5.5592-1.9629 6.2473-2.8879 5.6787-7.6336-0.6451-5.3835-1.5109-6.9589-3.8242-6.9589-2.9774 0-5.2232-2.3557-5.9936-6.2871-1.4999-7.6541-0.24984-12.521 3.3928-13.208 3.2623-0.61603 4.0314-3.4926 2.6085-9.7566-0.54748-2.4103-1.5838-4.1561-4.0408-6.807-4.1672-4.4962-6.9276-9.6862-8.4856-15.955-1.0045-4.0415-1.2184-7.6922-1.2184-20.8 0-8.744 0.24228-16.977 0.53838-18.296 0.2961-1.3191 1.4651-3.3948 2.5977-4.6128 2.8662-3.0821 7.7806-4.3212 26.5-6.6814 8.5203-1.0743 17.462-2.3651 19.869-2.8685 6.4248-1.3431 26.676-3.872 48.158-6.0137 25.423-2.5346 30.021-3.0931 36.708-4.4586 3.1488-0.64303 11.332-1.7744 18.186-2.5142 6.8533-0.73976 17.262-2.0445 23.13-2.8994l10.669-1.5544 11.557-5.4297c7.5092-3.5278 14.271-6.1902 19.303-7.6009 6.8766-1.9275 8.0102-2.4529 10.103-4.6824 2.2145-2.359 13.007-19.103 33.686-52.26 11.5-18.439 16.42-25.98 18.325-28.09 1.2631-1.3983 3.6815-2.2682 13.659-4.9128 14.772-3.9155 21.203-5.3496 31.447-7.0123 18.904-3.0684 42.091-5.2428 68.911-6.4622 18.759-0.85289 90.942-0.42806 109.45 0.64418 33.51 1.9414 59.243 4.0159 83.856 6.7603 17.675 1.9709 25.037 3.1629 29.695 4.8083 5.8914 2.0812 6.3281 4.1958 2.2985 11.128-1.4818 2.5491-2.6942 5.057-2.6942 5.5732 0 0.51615 2.2089 3.749 4.9087 7.1841 2.6998 3.4351 11.595 15.117 19.766 25.959s20.115 26.439 26.541 34.658 14.372 18.419 17.659 22.666l5.9764 7.722 3.4918 0.38594c1.9205 0.21228 14.252 1.1088 27.402 1.9923 44.037 2.9584 66.243 5.0177 68.436 6.3467 4.7527 2.8801 7.8533 19.139 5.2786 27.679-1.6312 5.4108-2.2014 8.8878-3.6845 22.464-2.228 20.396-3.636 25.501-7.6738 27.826-1.141 0.65691-3.2041 1.1955-4.5847 1.1968-3.171 3e-3 -4.1176 1.3219-5.2505 7.3155-1.3747 7.2724-3.2576 12.254-5.5723 14.743-1.7245 1.8544-2.1584 2.8796-2.1584 5.0998 0 1.7781 0.3638 2.996 1.0103 3.3818 0.5557 0.33165 3.3246 0.60737 6.1533 0.61273 7.2053 0.0131 11.537 2.1312 14.198 6.9404 1.1215 2.0269 1.8754 4.3909 1.8754 5.8809 0 4.6291-3.2229 9.5976-7.6373 11.774-2.7286 1.3452-50.133 2.3459-85.311 1.8009-24.253-0.37576-27.68-0.55538-30.899-1.6197-6.2292-2.0597-7.2023-0.5286-7.7012 12.117-0.5125 12.991-3.6131 23.913-10.29 36.248-9.15 16.904-21.777 27.681-33.359 28.471-4.7324 0.32295-6.157-0.35213-4.5652-2.1631 0.4743-0.53957 3.304-2.1384 6.2882-3.553 7.216-3.4205 10.579-5.6402 16.109-10.633 11.752-10.61 18.884-25.471 20.614-42.953 2.4321-24.575-7.8288-49.104-26.314-62.905-5.9802-4.4647-14.49-8.7183-20.54-10.267-20.235-5.1793-52.045 3.7125-60.015 16.776-0.99576 1.6321-3.1028 4.3446-4.6824 6.0277-4.2896 4.571-10.577 17.152-12.731 25.472-1.6797 6.4898-1.7728 7.6333-1.5267 18.76 0.17236 7.7949 0.54719 12.332 1.0954 13.262 0.45842 0.77754 1.13 2.8903 1.4925 4.6949 1.5694 7.8132 11.964 24.623 19.152 30.971 7.7289 6.8262 19.189 12.573 30.955 15.523 4.3068 1.0797 7.1828 1.3475 13.741 1.2794 7.4768-0.0776 8.2723 0.0207 8.0732 0.99671-0.43449 2.1307-4.9321 2.9078-17.075 2.9503l-11.484 0.0403-4.3438-2.0191c-2.3891-1.1105-6.3139-2.8812-8.7218-3.9349-14.331-6.2713-29.736-25.977-35.86-45.874l-2.2511-7.3132-2.6659 0.14403c-22.944 1.2397-314.34 4.9992-316.94 4.0892-0.94443-0.32985-2.7089-2.3432-4.325-4.9351-2.6249-4.2097-4.4402-5.5183-5.8319-4.2044-0.36029 0.34017-0.91547 3.4433-1.2337 6.8958-1.6564 17.969-7.1726 30.356-19.993 44.895-8.716 9.8842-16.161 14.812-27.974 18.516-10.527 3.3011-24.694 4.9498-31.18 3.6285zm23.927-7.6296c25.245-6.2309 43.343-26.278 48.827-54.087 1.3887-7.0418 1.3998-20.926 0.0222-27.733-3.4853-17.222-12.322-30.404-26.285-39.21-2.2227-1.4017-4.9505-3.3521-6.0619-4.3342-5.5432-4.8986-16.821-7.275-31.993-6.7412-11.035 0.38823-14.523 1.1353-22.795 4.883-16.408 7.4332-28.482 20.939-34.399 38.477-2.8023 8.3066-3.7277 14.195-3.6981 23.529 0.0411 12.935 2.6554 23.159 8.6361 33.773 8.9045 15.804 23.509 26.877 41.816 31.703 7.6386 2.0138 17.1 1.9186 25.931-0.261zm-25.257-19.669c-17.44-5.9441-29.209-19.997-32.037-38.252-2.6866-17.348 4.7743-36.851 17.697-46.261 7.8897-5.7454 16.223-8.3847 26.524-8.4005 12.223-0.0188 21.542 3.5427 29.982 11.458 4.1085 3.8532 5.7418 5.9927 8.2575 10.817 4.6618 8.9396 5.9776 14.393 5.9776 24.774 0 6.7678-0.30542 9.6619-1.4429 13.672-6.1298 21.613-22.21 33.448-45.332 33.363-4.2876-0.0163-7.3192-0.38441-9.6263-1.1707zm20.233-4.8776c7.3264-1.7956 10.997-3.8226 16.422-9.0692 12.638-12.222 19.884-31.977 14.967-40.811-0.87272-1.5683-2.3506-4.8592-3.2842-7.3131-2.7184-7.1452-9.9684-16.553-15.349-19.919-6.412-4.01-9.7925-4.8386-19.855-4.867-10.648-0.03-15.419 1.1616-22.438 5.6039-5.5863 3.5358-13.692 13.576-15.754 19.513-4.3392 12.496-3.4334 23.698 2.9217 36.134 5.1448 10.068 14.918 18.085 25.243 20.707 4.8224 1.2245 12.18 1.2336 17.126 0.0212zm-21.037-6.6289c-1.9242-0.27873-4.5583-1.1252-5.8535-1.881-5.7258-3.3411-13.241-13.683-14.44-19.872-0.29298-1.5116-0.29048-3.7499 5e-3 -4.9741 0.83891-3.4693 2.115-17.688 1.9822-22.088-0.14844-4.9179 1.8378-8.9786 6.8289-13.961 6.2402-6.2296 17.452-10.288 20.717-7.4981 0.85701 0.73228 3.0824 1.0031 9.1458 1.1129 7.2269 0.13096 8.3873 0.31855 11.825 1.9126 4.8365 2.2425 8.7785 5.8471 11.076 10.129 1.5084 2.8104 1.8943 4.6271 2.3788 11.197 0.31807 4.3132 0.87965 10.325 1.248 13.36 1.2133 9.997 0.94119 13.408-1.4263 17.881-2.7154 5.1306-9.11 11.58-13.556 13.672-4.0228 1.8927-5.6724 2.0198-7.8164 0.60192-1.306-0.86363-2.1574-0.92047-5.3698-0.35841-5.7703 1.0096-12.837 1.3334-16.746 0.76727zm20.219-15.295c3.8048-1.6886 7.9942-5.8137 10.319-10.16 4.9444-9.2457 0.20573-23.455-9.3585-28.062-10.527-5.0708-23.75 1.3817-27.171 13.26-2.901 10.071 1.5991 19.723 11.338 24.318 5.0639 2.3891 10.419 2.6212 14.873 0.64454zm17.874-7.4577c1.1691-2.0696 1.1905-4.8886 0.0387-5.1014-0.72935-0.13471-1.3118 0.58468-1.8522 2.2877-0.43356 1.3663-0.78832 2.8088-0.78832 3.2054 0 1.1304 1.9039 0.84377 2.6019-0.39174zm-107.83-3.5796c1.1855-0.5788 2.6168-1.8947 3.1806-2.9242 1.3797-2.5191 3.1371-9.8435 2.6496-11.043-0.59132-1.4549-7.0586-1.8361-20.283-1.1955-12.184 0.59017-13.678 0.98723-13.678 3.6353 0 1.4401 6.2605 11.108 7.2269 11.16 0.28531 0.0147 2.0342 0.44367 3.8864 0.95163 4.3844 1.2024 14.036 0.87073 17.018-0.58479zm288.43-5.4946c65.893-0.81348 74.763-1.0962 74.763-2.3837 0-0.88174-2.9089-0.94223-27.447-0.57068-34.565 0.52337-131.19 1.7126-153.06 1.8837-10.351 0.081-16.502 0.36383-16.502 0.75881 0 0.34631 0.90928 0.83068 2.0206 1.0764 2.1485 0.47498 38.606 0.24315 120.23-0.76448zm-95.605-17.794c-0.0978-13.266 1.129-89.099 1.9496-120.51 0.50335-19.266 0.44857-22.356-0.40763-22.992-3.3779-2.5087-51.007-1.2418-100.59 2.6756-28.953 2.2875-82.625 8.4608-93.71 10.778-2.4566 0.51363-7.6932 1.3615-11.637 1.8842-3.9437 0.52267-7.7684 1.2525-8.4992 1.6217-2.1736 1.0983-3.1933 3.1849-4.3465 8.8937-1.9684 9.7446-1.7037 14.06 4.0565 66.136 2.3612 21.347 3.4428 27.114 5.3678 28.623 0.75742 0.59351 2.9968 0.72058 8.4202 0.47788 9.3037-0.41635 10.382-0.98581 11.421-6.0312 4.2402-20.583 17.956-41.07 32.711-48.861 21.489-11.346 61.228-12.822 82.484-3.0623 3.914 1.7971 6.344 3.5582 10.791 7.821 12.897 12.362 19.858 21.79 27.972 37.885 7.2088 14.3 14.658 33.209 15.578 39.541 0.3199 2.2035 0.17546 2.8027-0.75695 3.1406-1.7627 0.63866-2.7978-0.8038-5.3012-7.3876-8.5713-22.542-10.322-26.516-15.824-35.93-11.486-19.65-25.953-35.714-36.573-40.611-9.1307-4.2098-19.587-5.8593-33.604-5.3006-21.352 0.85099-40.709 6.8404-50.74 15.701-11.952 10.557-24.639 36.29-21.215 43.033 1.3615 2.6822 2.9986 2.6559 3.5376-0.0568 1.3552-6.8201 10.237-23.672 17.451-33.113 7.5497-9.8787 15.452-14.551 27.945-16.521 12.073-1.904 26.901-1.5559 39.85 0.93555 9.3159 1.7924 15.656 4.3645 20.982 8.5125 5.0152 3.9058 14.461 14.266 15.833 17.365 0.51252 1.1581 1.2275 2.1056 1.5888 2.1056 2.1294 0 13.81 27 20.221 46.741 1.6496 5.0795 2.7222 6.4591 5.6538 7.2718 1.1415 0.31645 8.24 0.52675 15.775 0.46733l13.699-0.10794zm-177.61-0.0696c1.9354-8.6183 6.4727-20.177 10.592-26.984 8.2317-13.601 21.301-23.24 37.999-28.026 5.4899-1.5736 7.0787-1.7403 16.838-1.767 9.1936-0.0251 11.618 0.18509 16.502 1.4309 13.268 3.3844 23.455 9.449 34.741 20.684 4.214 4.1946 7.8054 7.491 7.981 7.3252 0.54261-0.5123-5.1152-9.7985-9.7191-15.952-5.3262-7.119-14.039-15.937-17.785-17.999-6.9078-3.8033-22.556-6.2687-40.159-6.3272l-12.48-0.0415-7.3382 3.3666c-6.0191 2.7614-8.1402 4.1375-11.8 7.6553-5.0625 4.8659-9.5266 10.565-13.098 16.722-2.2871 3.9425-9.0615 19.928-11.857 27.978-1.0967 3.1585-3.3872 16.948-3.3324 20.062 0.0447 2.5447 1.3102-0.98422 2.9142-8.1268zm449.32 7.0129c3.3693-1.1392 4.0268-2.8174 4.9618-12.667 1.9034-20.05 9.1397-40.206 18.893-52.626 7.2173-9.1904 13.241-12.289 30.645-15.763 11.352-2.266 18.603-2.7748 30.366-2.1312 17.295 0.94637 36.905 3.856 53.526 7.942 12.574 3.0912 18.288 5.4405 21.429 8.8105 10.822 11.612 22.379 49.952 15.058 49.952-1.6407 0-2.2497-1.7434-4.1098-11.765-3.4394-18.528-10.556-31.174-21.048-37.403-4.4376-2.6344-26.398-7.5032-43.612-9.6692-11.275-1.4187-31.694-1.8975-41.702-0.97797-9.9899 0.91789-19.664 3.122-24.44 5.5683-12.941 6.628-24.296 25.495-28.095 46.68-1.9355 10.795-3.5471 23.402-3.0824 24.112 0.69954 1.0686 4.2735 0.71527 4.9362-0.48807 0.33711-0.61208 0.96667-4.4038 1.399-8.426 1.5578-14.492 4.929-27.028 9.662-35.93 6.9513-13.074 17.961-21.936 31.235-25.141 19.489-4.706 58.048-1.8883 81.006 5.9195 4.782 1.6263 6.246 2.4886 9.4295 5.5538 7.0971 6.8335 14.235 20.617 17.031 32.888 2.3839 10.462 2.5471 10.93 4.1042 11.771 1.1046 0.59627 6.0447 0.79642 19.005 0.76994 18.354-0.0376 21.903-0.47153 23.247-2.8436 0.37025-0.65321 0.84988-3.8497 1.0659-7.1032 0.21599-3.2536 0.70163-6.8733 1.0792-8.0439 1.1691-3.6244 2.8445-3.913 22.712-3.913 17.656 0 20.397-0.30691 21.238-2.3781 0.82132-2.0207 5.9253-35.827 10.109-66.955 2.422-18.022 4.4037-32.963 4.4037-33.203 0-0.66261-4.415-1.627-10.777-2.354-12.936-1.4782-37.034-2.6841-83.519-4.1792-16.485-0.53025-40.732-1.3872-53.883-1.9044-13.151-0.51717-48.613-1.5175-78.804-2.2229-30.191-0.70542-62.815-1.5654-72.497-1.9111-18.589-0.66372-21.465-0.50043-22.472 1.2761-0.38507 0.6793-0.38319 5.5966 7e-3 12.793 0.34661 6.4295 0.63885 15.203 0.64935 19.496 0.0189 7.7766 0.01 7.8233-2.4862 12.401l-2.5054 4.5946-0.82622-19.078c-0.85325-19.703-1.8236-31.928-2.5916-32.652-0.63226-0.59609-164.19-0.45017-185.69 0.16564-11.564 0.3312-18.367 0.77413-19.041 1.2398-0.91492 0.63165-1.0981 4.5571-1.4286 30.612-0.28634 22.578-0.60239 30.548-1.2923 32.59-0.52595 1.5566-0.63851 2.7027-0.2654 2.7027 0.40809 0 0.62886 14.061 0.59661 37.997-0.0539 39.952 0.0433 41.364 2.9542 42.938 4.61 2.4938 173.09-0.0934 202.58-3.1108 2.0847-0.21332 4.2063-0.63083 4.7148-0.9278 0.76798-0.44859 0.92438-7.4573 0.92438-41.421v-40.881l2.1566-3.8156 2.1566-3.8156-0.0397 37.838c-0.0216 20.811-0.24543 42.702-0.49693 48.648-0.25149 5.9459-0.33375 11.054-0.1828 11.352 0.15105 0.29772 11.225 0.41748 24.608 0.26613 18.709-0.21158 24.951-0.4837 27.002-1.1772zm-70.022-127.45c-0.92861-0.61101-5.3228-1.1013-14.144-1.5781-17.021-0.92005-19.684-1.7695-17.582-5.6081 1.2449-2.2729 4.0167-3.0397 13.204-3.6532 6.6721-0.44549 19.894 0.50182 23.481 1.6823 2.335 0.76853 3.0844 2.2975 2.454 5.0072-0.99616 4.282-4.3544 6.1622-7.4126 4.1499zm-389.42 121.17c2.9885-0.87449 4.4926-3.4434 4.4926-7.6733 0-3.7649-1.5035-5.9945-5.2016-7.7138-2.9372-1.3656-4.0102-1.4877-12.31-1.4011-12.943 0.13505-22.771 2.7429-27.631 7.3312-4.0593 3.8326-1.3454 8.1846 6.0779 9.7462 5.3352 1.1224 30.467 0.91213 34.573-0.28924zm726.9-7.5791c6.5344-1.1575 8.8357-1.9944 11.462-4.1687l2.6451-2.1895-3.8138-3.6359c-3.3958-3.2375-4.2814-3.7289-8.0824-4.4847-7.3954-1.4705-29.352-2.3226-40.303-1.5641-5.3715 0.37205-10.443 0.85651-11.271 1.0766-3.7406 0.9946-3.6716 11.619 0.0906 13.946 0.8525 0.52741 3.338 1.2235 5.5232 1.5469 4.8626 0.71957 39.036 0.30795 43.749-0.52697zm-108.95-2.754c1.0677-1.0081 1.0201-3.803-0.16449-9.6485-3.1134-15.364-14.291-28.841-27.733-33.439-2.2671-0.77549-4.8434-1.3137-5.7251-1.1959-1.4659 0.19573-1.338 0.38779 1.4939 2.2448 8.9695 5.8818 21.975 24.845 25.171 36.701 0.55675 2.0655 1.5182 4.2833 2.1365 4.9284 1.2818 1.3372 3.6285 1.5367 4.822 0.40982zm120.77-58.52c0.3454-0.60265 0.9342-2.6058 1.3084-4.4515 0.9241-4.5572 4.6949-39.864 4.6191-43.25l-0.061-2.7132-0.6855 2.2257c-0.6477 2.1027-8.1234 34.063-10.445 44.652-0.871 3.9738-0.9135 5.0908-0.2237 5.8756 0.76 0.86453 1.0678 0.84975 2.8555-0.13716 1.1021-0.60837 2.2863-1.5992 2.6316-2.2019zm-4.3921-30.435c3.1823-13.787 5.9516-27.11 6.1541-29.607 0.3477-4.2883 0.2847-4.5652-1.1383-4.9916-0.8285-0.24829-1.8117-0.16329-2.1847 0.189-1.2903 1.2182-3.8763 14.5-6.2146 31.918-2.5348 18.882-3.5113 28.516-2.8311 27.928 0.2358-0.20368 3.0324-11.65 6.2146-25.437zm-768.86 7.8697c-1.6484-12.656-1.7592-22.361-0.32491-28.485 1.8526-7.9104 1.9487-9.2209 0.67599-9.2209-7.0757 0-9.6366 25.718-4.0844 41.017 1.7616 4.8542 4.5788 9.7396 4.8746 8.4533 0.13733-0.59708-0.37627-5.8912-1.1413-11.765zm672.07-56.086c1.2013-0.71835 0.41576-1.8809-1.8109-2.6802-0.96922-0.3479-6.1681-0.91417-11.553-1.2584-5.385-0.34421-11.333-1.0379-13.217-1.5416-4.5815-1.2245-9.0397-5.0355-12.516-10.699-1.536-2.5025-7.1352-11.456-12.443-19.897-5.3075-8.4409-10.488-16.866-11.512-18.722-1.0243-1.8561-2.2413-3.4872-2.7043-3.6246-1.2668-0.37598-1.0133 1.9715 0.33676 3.1189 0.64827 0.55094 1.7004 1.8307 2.3381 2.844 0.63764 1.0133 1.5418 2.3377 2.0092 2.9432 0.70432 0.91246 0.6456 1.2935-0.34303 2.2258-0.97696 0.92126-2.3764 1.1248-7.7342 1.1248-5.4577 0-6.5072 0.15807-6.3344 0.95389 0.11382 0.52464 1.8707 3.6011 3.904 6.8365 5.792 9.2164 6.9882 12.018 6.9957 16.385 8e-3 4.9009-1.4996 7.6378-5.6917 10.329-3.6197 2.3241-7.8872 3.6429-14.845 4.5876-5.1581 0.70035-100.65-0.2252-126.12-1.2224-15.514-0.60746-17.925-1.1407-20.557-4.5453-4.8378-6.2579-6.1905-65.967-1.7748-78.343 0.74568-2.0899 1.1969-4.1908 1.0027-4.6686-0.26563-0.65355-1.9857-0.86644-6.9413-0.85912-8.2404 0.0114-9.0306 0.39318-6.7615 3.2599 3.7058 4.6818 4.3717 10.815 4.9268 45.377 0.4316 26.871 0.9105 32.715 2.9971 36.577 2.809 5.1987 7.4451 6.1065 34.009 6.6594 53.955 1.1229 125.84 3.2309 169.73 4.9775 11.464 0.45618 33.76 0.36735 34.605-0.13782zm-463.76-6.3254c5.8699-0.36603 6.774-0.58473 7.9141-1.9145 1.629-1.9001 1.6253-2.6678-0.0147-3.0728-0.71613-0.17681-1.7714-1.2552-2.345-2.3966-1.62-3.2233-2.6582-3.7474-6.5589-3.3112-6.826 0.76331-16.736 6.6758-16.736 9.9851 0 1.1477 0.45755 1.2454 5.5567 1.1869 3.0562-0.0351 8.5388-0.2497 12.184-0.47695zm218.33-0.67653c4.1055-0.87527-5.3689-1.3147-43.55-2.02-40.384-0.74596-144.92-0.59069-145.77 0.21653-0.99141 0.93632 0.53849 1.3934 5.9831 1.7878 7.4955 0.54286 180.8 0.55767 183.34 0.0163zm-196.44-2.1778c0.81389-0.81796 8.4276-12.479 16.919-25.914 8.4918-13.435 16.835-26.573 18.54-29.196 5.0796-7.815 9.888-15.436 11.205-17.759 0.67943-1.1986 2.0742-3.0109 3.0994-4.0273 2.611-2.5885 10.744-7.6327 16.887-10.474l5.1836-2.3974-11.999-0.17381c-14.737-0.21349-15.154-0.0818-16.65 5.2621-1.2324 4.4021-1.783 5.468-5.8003 11.228-1.624 2.3285-3.5906 5.6195-4.3701 7.3132-0.77959 1.6937-1.9561 3.6518-2.6145 4.3513-1.2594 1.338-8.1667 12.622-17.517 28.617-9.8094 16.78-15.985 24.548-20.366 25.62-1.1986 0.29324-2.262 0.94434-2.3631 1.4469-0.25389 1.2618 5.7399 7.5909 7.1888 7.5909 0.64759 0 1.8433-0.66924 2.6572-1.4872zm432.96-1.4093c0.59851-1.4727-1.2759-4.3455-10.397-15.935-4.548-5.7787-14.532-18.715-22.188-28.747-24.441-32.03-26.99-35.092-29.206-35.092-1.4089 0-3.3132 2.6376-3.3125 4.5881 0 2.0342 2.9244 7.6113 9.4295 17.987 3.0698 4.8966 6.2649 10.284 7.1001 11.973 0.8352 1.6884 2.1388 3.6932 2.8968 4.455 0.75801 0.76183 2.3466 3.1006 3.53 5.1972 4.7829 8.4735 17.674 28.726 19.34 30.383 3.6595 3.6413 10.737 5.9334 18.848 6.104 2.6482 0.0557 3.6599-0.17786 3.9591-0.91391zm-74.965-2.7952c9.2656-1.0877 13.48-4.0187 13.395-9.3161-0.0599-3.728-1.6591-6.7987-9.7757-18.768-3.8972-5.7469-8.2363-12.446-9.6426-14.887-5.2857-9.1741-18.907-27.303-23.975-31.908l-2.2374-2.0332-11.45-0.68207c-17.045-1.0154-89.675-2.5059-94.02-1.9296-2.0711 0.27479-4.4112 0.88024-5.2002 1.3455-3.0784 1.8151-3.1578 2.7566-3.1578 37.447 0 31.605 0.0472 32.826 1.3471 34.914 1.6399 2.634 4.9265 4.3266 10.185 5.2454 4.6542 0.81319 78.157 1.7794 108.69 1.4288 11.299-0.12966 22.925-0.51546 25.836-0.85723zm-300.51-2.4797c6.5489-1.6389 9.3004-2.97 9.3004-4.4995 0-0.6554-1.0939-2.7228-2.4308-4.5941-3.8511-5.3905-9.1291-15.746-8.6904-17.051 0.86546-2.5745 6.4427-1.7127 8.6839 1.3419 0.60382 0.82299 4.7123 6.694 9.13 13.047l8.0321 11.55 4.5929 0.51814c2.5261 0.28496 25.961 0.52448 52.077 0.53225l47.484 0.0147 3.3564-1.5898c6.8476-3.2435 7.4532-6.8865 6.4537-38.823-0.39893-12.749-1.0514-24.739-1.4499-26.646-1.6872-8.0712-4.6288-10.39-14.538-11.459-7.9553-0.85861-81.309-0.85677-90.812 3e-3 -19.771 1.7872-29.053 5.7951-38.019 16.417-3.9937 4.731-32.889 49.699-35.97 55.978-0.92254 1.88-1.5206 3.8039-1.329 4.2752 0.74185 1.8252 10.339 2.7547 25.813 2.4999 10.54-0.17358 14.157-0.47233 18.315-1.5128zm-62.164-9.3387c1.1497-1.2363 2.0904-2.6452 2.0904-3.1308s0.75003-1.7246 1.6667-2.7532c0.9167-1.0286 4.3407-6.2731 7.6089-11.654 3.2682-5.3813 8.6881-14.22 12.044-19.641 15.792-25.509 19.121-31.137 19.513-32.986 0.79211-3.7394-0.86175-2.0031-6.1306 6.4362-2.8933 4.6343-7.3131 11.574-9.8219 15.421-5.7882 8.8766-26.924 43.007-28.83 46.556-2.4601 4.5797-1.5592 5.4285 1.8597 1.752zm368.25-56.72c-0.72579-2.9376-0.79477-4.6391-0.28039-6.9164 0.86374-3.8236 0.15741-4.3983-6.0558-4.9273-9.5694-0.81472-25.752-1.2192-25.752-0.6436 0 0.32319 1.0312 1.5059 2.2915 2.6283 1.2603 1.1224 3.4107 3.9755 4.7786 6.3402 3.632 6.2786 6.4006 8.8202 6.4006 5.8757 0-2.172 2.6631-2.8263 8.0713-1.9831 6.2393 0.97285 9.9445 2.4201 10.556 4.1229 0.97595 2.7198 0.96881-0.5361-0.01-4.4968zm5.6145-20.515c1.7036-0.86085 4.2715-4.9226 3.8178-6.0389-0.607-1.4935-6.7012-2.7588-21.314-4.4252-54.861-6.2566-112.48-8.9916-177.8-8.4394-49.322 0.41697-70.274 1.8519-86.561 5.9283-3.334 0.83446-11.214 2.7227-17.512 4.1961l-11.45 2.6789 6.0618 0.45341c6.8516 0.51246 51.946 1.5497 107.43 2.4711 43.837 0.72793 171.9 3.1044 181.18 3.3621 3.5192 0.0978 8.3129 0.23712 10.652 0.3097 2.3397 0.0725 4.8131-0.15056 5.4965-0.49591zm-23.453 303.86c-14.877-1.6312-27.557-10.506-34.835-24.38-4.4128-8.4125-5.8298-14.209-5.8298-23.847 0-9.4311 1.4118-15.401 5.4889-23.211 6.306-12.08 17.129-20.716 29.106-23.224 5.9732-1.2508 16.673-0.52181 22.597 1.5395 14.869 5.1742 24.176 14.431 29.598 29.438 2.5839 7.1515 3.0329 19.674 0.99441 27.732-5.9517 23.526-25.365 38.338-47.12 35.953zm10.576-6.2857c11.779-1.8045 22.347-9.7139 28.427-21.274 10.215-19.424 3.4779-43.587-15.698-56.301-11.058-7.3324-22.757-7.9123-35.871-1.778-9.0082 4.2137-15.178 10.468-18.712 18.97-2.4532 5.9011-3.1778 10.503-3.1778 20.182 0 14.264 1.8606 19.135 10.888 28.507 7.5147 7.8008 11.072 9.7897 20.431 11.423 5.9632 1.0405 8.3814 1.0884 13.712 0.27171zm-4.6196-4.0989c-4.9999-2.7626-9.3768-4.3488-14.334-5.1947-6.9163-1.1802-9.4609-2.3228-13.226-5.9387-4.8383-4.6467-10.158-17.029-10.158-23.643 0-1.3359 0.58145-2.9563 1.4235-3.967 2.1037-2.525 3.3522-6.9313 3.8967-13.752 0.43356-5.4303 0.71624-6.3863 2.6893-9.0938 4.2967-5.8963 14.848-12.326 21.251-12.95 3.0094-0.29326 3.9689-0.12116 5.6593 1.0153 3.3655 2.2626 7.5504 3.3582 13.238 3.4656 4.4243 0.0836 5.7742 0.36163 7.5452 1.5543 3.8146 2.5689 8.2684 7.9413 11.301 13.632 3.5717 6.7021 4.3808 10.574 2.7122 12.978-1.9258 2.7751-2.4148 5.2277-2.987 14.984-0.48844 8.3281-0.7332 9.6398-2.2543 12.083-3.7507 6.023-12.912 12.959-19.589 14.831-4.1683 1.1687-5.0469 1.1682-7.1682-3e-3zm5.9429-17.97c1.1558-0.96183 3.1476-2.5448 4.4264-3.5178 4.8481-3.6888 8.3385-12.309 7.5122-18.553-1.3972-10.558-11.228-18.8-21.418-17.956-9.1375 0.75642-16.175 8.1983-17.993 19.027-1.0252 6.1056-0.37672 8.7608 3.2648 13.368 3.3395 4.2254 7.5086 6.7432 13.911 8.4013 5.421 1.4039 7.9082 1.218 10.296-0.76933zm18.978-18.601c0-0.70658-0.44906-1.2718-1.0103-1.2718s-1.0103 0.56527-1.0103 1.2718c0 0.70659 0.44904 1.2719 1.0103 1.2719s1.0103-0.56527 1.0103-1.2719z" stroke-width=".65446"/></g></svg>
